<?xml version="1.0" encoding="utf-8"?>
<!-- Generator: Adobe Illustrator 27.2.0, SVG Export Plug-In . SVG Version: 6.00 Build 0)  -->
<svg version="1.1" id="Layer_1" xmlns="http://www.w3.org/2000/svg" xmlns:xlink="http://www.w3.org/1999/xlink" x="0px" y="0px"
	 viewBox="0 0 40 40" style="enable-background:new 0 0 40 40;" xml:space="preserve">
<style type="text/css">
	.st0{fill:#8CAE3E;}
</style>
<g>
	<path class="st0" d="M42.1,18.4c-0.1-0.5-0.6-0.8-1.1-0.6c-0.1,0-3.8,0.8-9,1.5l0,0c0-0.2,0-0.4,0-0.6c0,0,0-0.1,0-0.5
		c0-0.2,0-0.4,0-0.7c0.3,0,0.5,0,0.8,0c0.3,0,0.5,0,0.8,0c2.5-0.4,4.3-1.8,5.3-3.9c1-2,1.1-4.1,0.9-6.3c-0.1-0.8-0.3-1-1.2-0.9
		c-1.8,0.1-3.6,0.5-5.3,1.2C31,8.4,29.6,10,28.9,12c-0.5,1.3-0.4,2.7,0.5,3.8c0.2,0.3,0.5,0.6,0.8,0.8c0,0.7,0,1.1,0,1.3
		c0,0,0,0,0,0.2c0,0.2,0,0.6,0,1.3l0,0c-2.7,0.3-5.6,0.5-8.6,0.5h0l0-0.6c0-2.4,0-1.3,0-3.7c0.1,0,0.2,0,0.3-0.1
		c1-0.3,1.8-0.8,2.4-1.6c1.4-2,1.6-4.1,0.8-6.3c-0.5-1.5-1.5-2.7-2.6-3.9c-0.3-0.3-0.6-0.7-1-1c-0.5-0.5-1-0.5-1.5,0
		c-0.2,0.1-0.3,0.3-0.5,0.4c-0.6,0.7-1.3,1.4-1.8,2.1c-1.5,1.9-2.2,4-1.6,6.4c0.5,1.8,1.5,3.3,3.6,3.9l0.1,0c0,2.4,0,1.3,0,3.7
		l0,0.6c-3,0-5.9-0.2-8.6-0.5c0,0,0,0,0,0l0-0.1c0-0.7,0-1.1,0-1.3c0,0,0,0,0-0.2c0-0.2,0-0.6,0-1.2c0.1-0.1,0.2-0.2,0.3-0.3
		c1-0.9,1.4-2,1.3-3.2c-0.2-2.1-1.4-3.8-3.3-5c-2-1.3-4.4-1.7-6.8-1.8c-0.7,0-0.9,0.2-1,0.8c-0.2,1.4-0.1,2.7,0.1,4.1
		c0.4,2.4,1.7,4.3,4,5.6c0.6,0.3,1.3,0.5,2,0.6c0.5,0.1,1.1,0.1,1.7,0.1c0,0.3,0,0.5,0,0.7c0,0,0,0.1,0,0.5c0,0.1,0,0.3,0,0.6
		c-5.3-0.7-9.2-1.5-9.3-1.5c-0.5-0.1-1,0.2-1.1,0.6c-0.1,0.5,0.2,0.9,0.7,1.1c0.1,0,4.1,0.9,9.7,1.6c0,0.5,0,1,0,1.5
		c-0.9,0.4-1.7,0.8-2.5,1.2c-0.3,0.2-0.6,0.4-0.6,0.8v3c0,0.4,0.4,0.7,0.8,0.7c0.4,0,0.8-0.3,0.9-0.7v-2.5c0.5-0.2,1-0.4,1.5-0.7
		c0,1.8,0,3.6,0,5.3c-0.9,0.3-1.6,1.1-1.6,2.1c0,1.2,1.1,2.3,2.5,2.3s2.5-1,2.5-2.3c0-1-0.7-1.8-1.6-2.1c0-2.8,0-5.5,0-8.3
		c2.7,0.3,5.6,0.5,8.6,0.5c0,1.7,0,3.4,0,5.1c-0.2,0.1-0.3,0.1-0.4,0.2c-1,0.4-1.9,0.7-2.9,1.1c-0.4,0.1-0.6,0.4-0.6,0.7v3
		c0,0.4,0.4,0.7,0.8,0.7c0.4,0,0.8-0.3,0.8-0.7c0-0.3,0-0.6,0-0.9c0-0.5,0-1.1,0-1.6c0.8-0.3,1.5-0.5,2.3-0.8c0,1.8,0,3.6,0,5.3
		c-1.4,0.4-2.4,1.5-2.4,2.9c0,1.7,1.5,3,3.3,3s3.3-1.4,3.3-3c0-1.4-1-2.5-2.4-2.9c0-3.1,0-6.1,0-9.2c0.8,0.6,1.5,1.1,2.2,1.6v3.9
		c0,0.3,0.1,0.6,0.4,0.7c0.3,0.2,0.5,0.2,0.8,0.1c0.3-0.1,0.4-0.4,0.4-0.7V26c0-0.3-0.1-0.6-0.4-0.8c-0.4-0.3-0.7-0.5-1.1-0.8
		c-0.8-0.6-1.6-1.2-2.4-1.8c0-0.3,0-0.6,0-0.9c3,0,5.9-0.3,8.6-0.5c0,1.8,0,3.7,0,5.4c-1,0.3-1.6,1.1-1.6,2.1c0,1.2,1.1,2.3,2.5,2.3
		s2.5-1,2.5-2.3c0-0.9-0.6-1.8-1.5-2.1c0-0.9,0-1.8,0-2.7l1.9,1.1c0.4,0.2,0.8,0.1,1.1-0.2c0.3-0.3,0.2-0.7-0.1-1l-2.8-1.8
		c0-0.3,0-0.7,0-1.1c5.5-0.7,9.4-1.5,9.5-1.6C41.9,19.4,42.2,18.9,42.1,18.4z M9,13.8c-0.4-0.4-0.9-0.9-1.3-1.3
		c-0.3-0.3-0.6-0.3-0.9-0.2c-0.3,0.2-0.5,0.4-0.5,0.8c0,0.2,0.2,0.4,0.3,0.6C7.3,14.3,8.3,15.3,9,16l-0.2,0c-0.4,0-0.8,0-1.1-0.1
		c-1.8-0.5-3.1-1.6-3.8-3.3c-0.6-1.4-0.7-2.9-0.6-4.5c0-0.1,0-0.1,0.1-0.2C3.9,8,4.4,8.1,4.9,8.2c1,0.3,2,0.5,3,0.9
		c1.7,0.7,2.7,2.1,3.1,3.7c0.2,0.8,0.1,1.6-0.6,2.3C9.9,14.7,9.5,14.2,9,13.8z M11.3,31.7c0,0.5-0.4,0.8-0.9,0.8
		c-0.5,0-0.9-0.4-0.9-0.8s0.4-0.8,0.9-0.8C10.8,30.8,11.3,31.2,11.3,31.7z M18.1,12.5c-0.9-1.8-0.7-3.7,0.4-5.4
		c0.5-0.8,1.2-1.6,1.8-2.3c0.1-0.1,0.2-0.2,0.4-0.4C21,4.7,21.3,5,21.6,5.3c1,1.2,1.9,2.4,2.2,4c0.2,1.3,0,2.6-0.9,3.8
		c-0.3,0.4-0.7,0.8-1.3,1l0-4.6c0-0.7-0.3-1.1-0.8-1.1c-0.5,0-0.8,0.4-0.8,1.1l0,4.6C18.9,13.7,18.4,13.2,18.1,12.5z M21.9,36.8
		c0,0.6-0.6,1.1-1.2,1.1s-1.2-0.5-1.2-1.1s0.6-1.1,1.2-1.1C21.3,35.6,21.9,36.2,21.9,36.8z M30.4,12.9c0.4-1.5,1.3-2.7,2.7-3.5
		C34.6,8.5,36.3,8.2,38,8c0,0.1,0.1,0.1,0.1,0.2c0.1,1.6,0,3.3-0.8,4.8c-0.7,1.4-1.9,2.3-3.4,2.8C33.5,16,33,16,32.6,16l-0.2,0
		c0.5-0.5,1.1-1.1,1.6-1.6c0.3-0.3,0.6-0.6,0.8-0.9c0.4-0.4,0.3-0.8,0-1.1c-0.4-0.3-0.8-0.3-1.2,0.1c-0.7,0.7-1.3,1.4-2,2
		c-0.2,0.2-0.4,0.4-0.6,0.6C30.2,14.5,30.1,13.7,30.4,12.9z M31,29.6c-0.5,0-0.9-0.4-0.9-0.8c0-0.5,0.4-0.8,0.9-0.8s0.9,0.4,0.9,0.8
		C31.9,29.3,31.5,29.6,31,29.6z"/>
</g>
</svg>
