<svg xmlns="http://www.w3.org/2000/svg" version="1.1" x="0px"
      y="0px"
      width="258px"
      viewBox="0 0 258 57"
      enableBackground="new 0 0 258 57">
<g>
        <g>
          <path
            fill="#fafafa"
            d="M75.274,39.341c-1.372-0.305-2.577-0.793-3.614-1.464c-0.458-0.274-0.808-0.641-1.052-1.098
			c-0.245-0.457-0.366-0.976-0.366-1.555c0-0.701,0.198-1.288,0.595-1.761c0.396-0.472,0.884-0.709,1.464-0.709
			c0.396,0,0.792,0.069,1.189,0.206c0.396,0.137,0.808,0.297,1.235,0.48c0.854,0.396,1.692,0.709,2.516,0.938
			c0.823,0.229,1.845,0.343,3.064,0.343c1.067,0,1.898-0.167,2.493-0.503c0.595-0.335,0.892-0.792,0.892-1.372
			c0-0.427-0.13-0.77-0.389-1.029c-0.26-0.259-0.74-0.496-1.441-0.709c-0.702-0.213-1.815-0.473-3.339-0.778
			c-2.715-0.518-4.666-1.296-5.855-2.333c-1.189-1.036-1.784-2.485-1.784-4.346c0-1.372,0.418-2.607,1.258-3.705
			c0.838-1.098,1.99-1.959,3.454-2.584c1.464-0.625,3.11-0.938,4.94-0.938c1.311,0,2.591,0.168,3.842,0.503
			c1.25,0.336,2.363,0.809,3.339,1.418c0.945,0.58,1.418,1.434,1.418,2.562c0,0.731-0.199,1.342-0.595,1.83
			s-0.885,0.732-1.464,0.732c-0.702,0-1.54-0.274-2.516-0.824c-0.763-0.396-1.457-0.693-2.082-0.892
			c-0.625-0.198-1.365-0.297-2.218-0.297c-0.946,0-1.693,0.176-2.242,0.526c-0.549,0.351-0.823,0.831-0.823,1.441
			c0,0.641,0.32,1.128,0.96,1.464c0.641,0.336,1.875,0.671,3.706,1.006c2.042,0.396,3.644,0.877,4.803,1.441
			c1.159,0.564,1.997,1.273,2.516,2.127c0.518,0.854,0.777,1.937,0.777,3.248c0,2.166-0.892,3.888-2.676,5.169
			s-4.17,1.921-7.159,1.921C78.262,39.798,76.646,39.645,75.274,39.341z"
          />
          <path
            fill="#fafafa"
            d="M112.029,17.91c1.51,0.992,2.684,2.379,3.522,4.163c0.838,1.784,1.258,3.835,1.258,6.153
			s-0.419,4.354-1.258,6.106c-0.839,1.754-2.005,3.104-3.5,4.048c-1.495,0.946-3.218,1.418-5.169,1.418
			c-1.525,0-2.905-0.313-4.14-0.938s-2.188-1.501-2.859-2.63v6.702c0,0.915-0.305,1.647-0.915,2.196s-1.418,0.823-2.424,0.823
			c-1.068,0-1.929-0.29-2.584-0.869c-0.656-0.58-0.983-1.342-0.983-2.287V19.763c0-0.976,0.312-1.761,0.938-2.355
			c0.625-0.595,1.456-0.892,2.493-0.892c1.036,0,1.86,0.297,2.47,0.892c0.609,0.595,0.915,1.38,0.915,2.355v0.366
			c0.67-1.159,1.631-2.065,2.882-2.722c1.25-0.656,2.653-0.983,4.208-0.983C108.804,16.424,110.519,16.919,112.029,17.91z
			 M108.621,32.914c0.884-1.082,1.327-2.645,1.327-4.688c0-2.074-0.442-3.683-1.327-4.826c-0.885-1.144-2.135-1.715-3.751-1.715
			c-1.617,0-2.867,0.557-3.751,1.67c-0.885,1.113-1.327,2.707-1.327,4.78c0,2.043,0.442,3.622,1.327,4.735
			c0.884,1.113,2.134,1.669,3.751,1.669C106.486,34.538,107.736,33.997,108.621,32.914z"
          />
          <path
            fill="#fafafa"
            d="M135.678,17.133c0.533,0.473,0.8,1.182,0.8,2.127c0,1.006-0.245,1.754-0.732,2.241
			c-0.488,0.488-1.357,0.793-2.607,0.915l-1.372,0.137c-1.678,0.183-2.89,0.732-3.637,1.647c-0.748,0.915-1.121,2.089-1.121,3.522
			v8.737c0,1.068-0.328,1.875-0.983,2.424c-0.656,0.549-1.472,0.823-2.448,0.823c-1.006,0-1.837-0.274-2.493-0.823
			c-0.656-0.549-0.983-1.356-0.983-2.424V19.671c0-1.006,0.335-1.784,1.006-2.333c0.67-0.549,1.479-0.823,2.424-0.823
			c0.915,0,1.677,0.267,2.287,0.8c0.61,0.534,0.915,1.274,0.915,2.219v1.235c0.549-1.311,1.379-2.317,2.493-3.019
			c1.113-0.701,2.325-1.098,3.637-1.189l0.641-0.046C134.42,16.454,135.144,16.66,135.678,17.133z"
          />
          <path
            fill="#fafafa"
            d="M141.601,38.357c-1.8-0.96-3.187-2.317-4.163-4.071c-0.976-1.753-1.464-3.82-1.464-6.198
			c0-2.379,0.488-4.444,1.464-6.198c0.976-1.753,2.363-3.103,4.163-4.048c1.799-0.945,3.888-1.418,6.267-1.418
			c2.378,0,4.467,0.473,6.267,1.418c1.799,0.945,3.187,2.295,4.163,4.048c0.976,1.754,1.464,3.819,1.464,6.198
			c0,2.378-0.488,4.445-1.464,6.198c-0.976,1.754-2.363,3.11-4.163,4.071c-1.8,0.961-3.888,1.441-6.267,1.441
			C145.489,39.798,143.4,39.318,141.601,38.357z M152.9,28.088c0-2.165-0.435-3.781-1.304-4.849
			c-0.869-1.067-2.112-1.601-3.728-1.601c-3.355,0-5.032,2.15-5.032,6.45s1.677,6.45,5.032,6.45
			C151.222,34.538,152.9,32.388,152.9,28.088z"
          />
          <path
            fill="#fafafa"
            d="M183.754,17.384c0.625,0.58,0.938,1.372,0.938,2.378V36.55c0,0.946-0.328,1.708-0.984,2.287
			c-0.656,0.58-1.502,0.869-2.539,0.869c-0.977,0-1.754-0.274-2.333-0.823c-0.58-0.549-0.869-1.281-0.869-2.196V36.23
			c-0.702,1.159-1.624,2.043-2.768,2.653c-1.144,0.609-2.432,0.915-3.865,0.915c-2.836,0-4.948-0.785-6.335-2.355
			c-1.388-1.57-2.081-3.941-2.081-7.113V19.763c0-1.006,0.312-1.799,0.938-2.378c0.625-0.579,1.471-0.869,2.539-0.869
			s1.906,0.29,2.516,0.869c0.61,0.58,0.915,1.372,0.915,2.378v10.704c0,1.342,0.281,2.333,0.846,2.974
			c0.564,0.64,1.425,0.96,2.584,0.96c1.341,0,2.432-0.458,3.271-1.373c0.838-0.915,1.258-2.119,1.258-3.614v-9.652
			c0-1.006,0.305-1.799,0.915-2.378s1.448-0.869,2.516-0.869C182.282,16.515,183.128,16.805,183.754,17.384z"
          />
          <path
            fill="#fafafa"
            d="M203.583,35.361c0.427,0.397,0.641,0.977,0.641,1.738c0,0.885-0.351,1.555-1.052,2.013
			c-0.702,0.458-1.708,0.641-3.019,0.549l-1.281-0.091c-5.337-0.427-8.005-3.217-8.005-8.371v-9.057h-1.83
			c-1.006,0-1.769-0.221-2.287-0.663s-0.778-1.075-0.778-1.898c0-0.854,0.26-1.502,0.778-1.944c0.518-0.441,1.281-0.663,2.287-0.663
			h1.83v-3.568c0-1.006,0.313-1.799,0.938-2.379c0.625-0.579,1.471-0.869,2.539-0.869c1.067,0,1.906,0.29,2.516,0.869
			c0.609,0.58,0.915,1.373,0.915,2.379v3.568h3.202c2.074,0,3.111,0.869,3.111,2.607c0,0.823-0.26,1.457-0.778,1.898
			c-0.519,0.442-1.296,0.663-2.333,0.663h-3.202v9.561c0,0.915,0.213,1.609,0.641,2.081c0.427,0.473,1.052,0.74,1.875,0.801
			l1.281,0.091C202.485,34.737,203.156,34.965,203.583,35.361z"
          />
          <path
            fill="#fafafa"
            d="M225.379,33.486c0.381,0.488,0.572,1.114,0.572,1.875c0,0.519-0.153,1-0.458,1.441
			c-0.305,0.442-0.731,0.816-1.281,1.121c-1.037,0.549-2.241,1-3.614,1.35c-1.372,0.35-2.638,0.526-3.796,0.526
			c-2.44,0-4.567-0.472-6.381-1.418c-1.815-0.945-3.21-2.294-4.186-4.048c-0.976-1.753-1.464-3.819-1.464-6.198
			c0-2.287,0.473-4.315,1.418-6.083s2.257-3.148,3.934-4.14c1.677-0.991,3.583-1.486,5.718-1.486c2.043,0,3.835,0.45,5.375,1.349
			c1.54,0.9,2.737,2.181,3.591,3.843s1.281,3.606,1.281,5.832c0,0.671-0.16,1.182-0.48,1.533c-0.32,0.351-0.771,0.526-1.35,0.526
			H211.45c0.213,1.8,0.762,3.104,1.646,3.911c0.884,0.808,2.15,1.212,3.797,1.212c0.884,0,1.677-0.106,2.379-0.32
			c0.701-0.213,1.479-0.503,2.333-0.869c0.427-0.183,0.838-0.343,1.235-0.48c0.396-0.137,0.747-0.206,1.052-0.206
			C224.502,32.754,224.998,32.998,225.379,33.486z M212.869,22.439c-0.793,0.839-1.266,2.051-1.418,3.637h8.829
			c-0.092-1.616-0.496-2.836-1.212-3.66c-0.717-0.823-1.731-1.235-3.042-1.235C214.713,21.181,213.661,21.6,212.869,22.439z"
          />
          <path
            fill="#fafafa"
            d="M251.087,10.92c0.655,0.58,0.983,1.342,0.983,2.287V36.46c0,0.976-0.313,1.761-0.938,2.355
			c-0.626,0.595-1.457,0.892-2.493,0.892c-1.037,0-1.868-0.297-2.493-0.892s-0.938-1.379-0.938-2.355v-0.366
			c-0.672,1.159-1.624,2.066-2.859,2.722c-1.235,0.656-2.63,0.983-4.186,0.983c-1.921,0-3.637-0.495-5.146-1.486
			c-1.51-0.991-2.684-2.379-3.523-4.163c-0.839-1.784-1.258-3.835-1.258-6.153c0-2.317,0.419-4.353,1.258-6.106
			c0.839-1.753,2.005-3.103,3.5-4.048c1.494-0.945,3.217-1.418,5.169-1.418c1.524,0,2.905,0.32,4.14,0.96
			c1.235,0.641,2.188,1.54,2.859,2.699v-7.013c0-0.915,0.305-1.646,0.915-2.195c0.609-0.549,1.418-0.824,2.424-0.824
			C249.569,10.05,250.431,10.341,251.087,10.92z M243.905,32.868c0.869-1.113,1.304-2.706,1.304-4.78s-0.435-3.66-1.304-4.757
			c-0.869-1.098-2.112-1.647-3.729-1.647s-2.866,0.542-3.751,1.624c-0.885,1.083-1.326,2.646-1.326,4.688
			c0,2.074,0.441,3.683,1.326,4.826c0.885,1.144,2.135,1.715,3.751,1.715S243.036,33.982,243.905,32.868z"
          />
        </g>
      </g>
      <path
        fill="#8cae3e"
        d="M56.068,24.428c-0.148-0.604-0.758-0.973-1.36-0.825c-0.072,0.018-4.5,1.087-10.689,1.923l0,0
	c0-0.31,0-0.564,0-0.755c0,0.019,0-0.137,0-0.6c0-0.232,0-0.527,0-0.946c0.358,0.026,0.649,0.062,0.941,0.063
	c0.312,0.002,0.632,0.007,0.936-0.051c2.978-0.573,5.065-2.347,6.339-5.014c1.225-2.565,1.304-5.343,1.066-8.128
	c-0.088-1.032-0.39-1.291-1.421-1.213c-2.182,0.167-4.306,0.607-6.319,1.494c-2.607,1.148-4.275,3.149-5.154,5.817
	c-0.572,1.735-0.436,3.426,0.606,4.975c0.264,0.393,0.615,0.728,0.897,1.056c0,0.905,0,1.384,0,1.637c0-0.021,0,0.039,0,0.244
	c0,0.252,0,0.73,0,1.63l0.001,0.059c-3.146,0.37-6.63,0.653-10.172,0.707h-0.001l-0.005-0.765c0-3.165,0-1.743,0-4.846
	c0.136-0.06,0.232-0.058,0.336-0.088c1.186-0.335,2.139-1.025,2.807-2.037c1.675-2.54,1.948-5.285,0.982-8.141
	c-0.642-1.897-1.834-3.476-3.104-4.993c-0.366-0.437-0.756-0.859-1.164-1.257c-0.633-0.617-1.145-0.613-1.782-0.019
	C29.617,4.527,29.432,4.71,29.27,4.91c-0.732,0.9-1.499,1.776-2.174,2.718c-1.776,2.479-2.579,5.202-1.854,8.247
	c0.567,2.381,1.752,4.251,4.254,4.992l0.133,0.019c0,3.103,0,1.724,0,4.846l0.005,0.768c-3.538-0.04-7.028-0.312-10.187-0.675
	c-0.001,0-0.001,0-0.002,0l-0.001-0.093c0-0.919,0-1.401,0-1.653c0,0.022,0-0.037,0-0.241c0-0.249,0-0.723,0-1.615
	c0.111-0.12,0.207-0.232,0.312-0.335c1.151-1.135,1.669-2.544,1.512-4.118c-0.276-2.762-1.633-4.966-3.907-6.519
	c-2.415-1.65-5.213-2.168-8.074-2.378C8.506,8.817,8.173,9.149,8.089,9.919c-0.191,1.751-0.118,3.495,0.135,5.236
	c0.459,3.15,1.994,5.603,4.772,7.192c0.705,0.404,1.523,0.656,2.321,0.838c0.646,0.147,1.339,0.083,2.043,0.114
	c0,0.392,0,0.67,0,0.895c0-0.021,0,0.14,0,0.621c0,0.193,0,0.443,0,0.753c-6.349-0.842-10.918-1.947-10.992-1.965
	c-0.602-0.146-1.212,0.221-1.36,0.825c-0.147,0.604,0.222,1.212,0.825,1.36c0.076,0.019,4.888,1.184,11.536,2.049
	c0,0.656,0,1.286,0,1.916c-1.029,0.516-2.014,1.016-3.005,1.506c-0.41,0.203-0.701,0.498-0.705,0.971v3.816
	c0.014,0.563,0.453,0.941,0.968,0.952c0.532,0.011,0.973-0.389,1.017-0.969v-3.192c0.604-0.298,1.142-0.56,1.732-0.85
	c0,2.365,0,4.622,0,6.854c-1.096,0.421-1.877,1.477-1.877,2.721c0,1.613,1.308,2.921,2.921,2.921s2.921-1.308,2.921-2.921
	c0-1.243-0.779-2.297-1.873-2.719c0-3.57,0-7.167,0-10.753c3.166,0.357,6.647,0.621,10.176,0.66c0,2.209,0,4.406,0,6.591
	c-0.194,0.083-0.36,0.156-0.529,0.225c-1.145,0.463-2.288,0.931-3.437,1.384c-0.427,0.168-0.666,0.465-0.669,0.916v3.871
	c0.01,0.532,0.426,0.907,0.924,0.925c0.483,0.017,0.934-0.345,0.996-0.857c0.045-0.364,0.024-0.736,0.026-1.105
	c0.003-0.697,0.001-1.394,0.001-2.123c0.909-0.362,1.77-0.704,2.689-1.07c0,2.366,0,4.631,0,6.876
	c-1.669,0.455-2.903,1.966-2.903,3.779c0,2.172,1.76,3.932,3.932,3.932s3.932-1.76,3.932-3.932c0-1.795-1.21-3.292-2.853-3.763
	c0-3.979,0-7.9,0-11.922c0.951,0.759,1.81,1.445,2.67,2.132v5.02c-0.001,0.39,0.083,0.736,0.427,0.964
	c0.316,0.21,0.652,0.237,0.997,0.068c0.373-0.183,0.533-0.497,0.534-0.9V34.23c0.002-0.418-0.155-0.745-0.484-1.001
	c-0.422-0.327-0.838-0.663-1.256-0.998c-0.977-0.782-1.952-1.565-2.895-2.321c0-0.397,0-0.782,0-1.162
	c3.541-0.053,7.027-0.33,10.186-0.695c0,2.374,0,4.724,0,7.036c-1.129,0.404-1.942,1.473-1.942,2.741
	c0,1.613,1.308,2.921,2.921,2.921s2.921-1.308,2.921-2.921c0-1.221-0.75-2.264-1.813-2.701c0-1.175,0-2.291,0-3.495l2.246,1.453
	c0.444,0.263,0.983,0.115,1.271-0.292c0.299-0.423,0.243-0.928-0.156-1.294l-3.367-2.274c0-0.442,0-0.924,0-1.432
	c6.486-0.86,11.153-1.988,11.228-2.007C55.846,25.64,56.215,25.031,56.068,24.428z M16.889,18.438
	c-0.514-0.577-1.019-1.163-1.55-1.724c-0.306-0.324-0.699-0.409-1.112-0.205c-0.402,0.198-0.632,0.543-0.555,0.984
	c0.044,0.253,0.204,0.512,0.376,0.713c0.788,0.925,1.93,2.162,2.732,3.075l-0.189,0.023c-0.437-0.043-0.898-0.009-1.306-0.141
	c-2.157-0.696-3.699-2.103-4.535-4.209c-0.734-1.848-0.816-3.802-0.739-5.765c0.003-0.068,0.044-0.135,0.093-0.277
	c0.633,0.108,1.279,0.154,1.884,0.337c1.194,0.36,2.417,0.686,3.534,1.222c1.997,0.959,3.156,2.669,3.674,4.788
	c0.256,1.048,0.139,2.081-0.678,3.007C17.956,19.637,17.424,19.037,16.889,18.438z M19.515,41.564c0,0.605-0.491,1.096-1.096,1.096
	c-0.605,0-1.096-0.491-1.096-1.096s0.491-1.096,1.096-1.096S19.515,40.958,19.515,41.564z M27.612,16.736
	c-1.017-2.384-0.887-4.722,0.471-6.934c0.642-1.046,1.414-2.014,2.138-3.009c0.114-0.157,0.285-0.273,0.488-0.462
	c0.373,0.421,0.729,0.786,1.043,1.185c1.205,1.532,2.308,3.137,2.589,5.118c0.247,1.744-0.041,3.42-1.04,4.918
	c-0.372,0.558-0.863,0.985-1.584,1.264l-0.031-5.97c-0.002-0.9-0.353-1.382-0.995-1.384c-0.624-0.001-1.005,0.514-1.007,1.38
	l-0.002,5.983C28.612,18.391,28.003,17.653,27.612,16.736z M32.149,48.163c0,0.815-0.66,1.475-1.475,1.475s-1.475-0.66-1.475-1.475
	s0.66-1.475,1.475-1.475C31.488,46.688,32.149,47.349,32.149,48.163z M42.183,17.255c0.459-1.944,1.522-3.51,3.24-4.557
	c1.778-1.085,3.773-1.505,5.833-1.768c0.046,0.109,0.108,0.187,0.11,0.268c0.076,2.132-0.015,4.25-0.937,6.22
	c-0.825,1.762-2.211,2.972-4.025,3.654c-0.495,0.186-1.058,0.189-1.59,0.276l-0.232-0.01c0.562-0.644,1.283-1.45,1.846-2.093
	c0.327-0.374,0.664-0.74,0.985-1.119c0.432-0.511,0.413-1.082-0.036-1.47c-0.431-0.373-0.981-0.339-1.421,0.141
	c-0.797,0.867-1.568,1.758-2.35,2.639c-0.231,0.26-0.463,0.519-0.744,0.835C42.043,19.338,41.935,18.307,42.183,17.255z
	 M42.911,38.926c-0.605,0-1.096-0.491-1.096-1.096s0.491-1.096,1.096-1.096s1.096,0.491,1.096,1.096
	C44.007,38.435,43.516,38.926,42.911,38.926z"
      />
</svg>